<svg version="1.1" id="Layer_1" xmlns="http://www.w3.org/2000/svg" xmlns:xlink="http://www.w3.org/1999/xlink" x="0px" y="0px"
	 width="100%" viewBox="0 0 320 320" enable-background="new 0 0 320 320" xml:space="preserve">
<path fill="#000000" opacity="1.000000" stroke="none" 
	d="
M1.000000,110.000000 
	C1.000000,73.347458 1.000000,37.194920 1.000000,1.021189 
	C107.610878,1.021189 214.221756,1.021189 320.916321,1.021189 
	C320.916321,107.569153 320.916321,214.138397 320.916321,320.853821 
	C214.333481,320.853821 107.666763,320.853821 1.000000,320.853821 
	C1.000000,250.778366 1.000000,180.639175 1.000000,110.000000 
M61.081680,298.576233 
	C61.440987,298.400238 61.800297,298.224243 62.922588,298.051788 
	C65.939041,298.748688 68.955490,299.445587 72.068184,300.988556 
	C73.727005,301.325714 75.385033,301.951813 77.044777,301.956421 
	C100.179482,302.020721 123.314438,302.000031 146.449326,302.000000 
	C181.401321,301.999969 216.353378,302.024078 251.305069,301.921356 
	C252.880569,301.916718 254.452682,300.763123 256.894623,300.035248 
	C260.266724,299.307983 263.638794,298.580719 267.702118,298.001556 
	C268.397797,297.945374 269.093475,297.889191 270.549713,297.890259 
	C271.426819,297.259705 272.303955,296.629150 273.711334,295.831970 
	C274.162415,295.262817 274.613495,294.693695 275.784912,293.980133 
	C278.229279,292.208923 280.591492,290.308197 283.135803,288.694611 
	C287.855804,285.701172 289.541962,280.637024 292.825104,276.014709 
	C293.452484,274.023621 294.079865,272.032562 295.102112,269.436584 
	C295.794281,269.045563 297.010620,268.744751 297.095825,268.249329 
	C297.793213,264.195526 298.279755,260.105438 298.984741,255.544586 
	C299.024902,255.380783 299.065063,255.216995 299.954193,254.940308 
	C300.302795,253.289169 300.952576,251.638565 300.955536,249.986786 
	C301.015106,217.018066 301.000000,184.049194 301.000000,151.080368 
	C301.000000,124.605400 301.032257,98.130287 300.918884,71.655807 
	C300.912140,70.083344 299.736328,68.515877 298.985840,66.400719 
	C298.936066,66.221458 298.886261,66.042198 298.979034,65.067528 
	C298.934875,63.724442 298.890717,62.381351 298.755157,60.296135 
	C297.839447,57.913879 296.923767,55.531624 295.352509,52.812046 
	C294.253174,50.498825 293.153809,48.185608 291.747040,45.225567 
	C289.057861,41.140110 287.752991,36.093853 283.151245,33.336182 
	C280.366333,31.667265 277.755463,29.707924 274.840302,27.322115 
	C274.268219,27.183357 273.696136,27.044598 273.086151,26.960918 
	C273.086151,26.960918 273.149139,26.983536 273.051575,26.586824 
	C273.051575,26.586824 272.836609,26.239443 272.868256,25.456642 
	C271.842041,25.026789 270.815857,24.596935 269.109589,23.998070 
	C268.410034,24.047560 267.710449,24.097050 266.229706,23.996323 
	C262.828583,23.282654 259.427460,22.568985 255.931274,21.009434 
	C254.271362,20.672962 252.611969,20.045799 250.951477,20.042938 
	C217.653015,19.985518 184.354431,19.999996 151.055862,20.000004 
	C126.248428,20.000008 101.440842,19.965219 76.633957,20.081951 
	C75.056053,20.089376 73.483704,21.273668 71.864548,21.977659 
	C71.864548,21.977659 71.929985,22.024429 71.103973,22.006748 
	C69.727142,22.061775 68.350311,22.116802 66.190384,22.051977 
	C61.993305,24.493475 55.867870,22.544767 52.236214,28.007875 
	C44.871918,32.876198 37.975716,38.173828 34.238014,47.291264 
	C32.877438,50.183617 31.516859,53.075974 30.021658,56.716259 
	C29.732618,58.151688 29.443579,59.587116 29.014095,61.828281 
	C29.064770,63.186436 29.115444,64.544586 29.022293,66.410767 
	C28.987070,66.583191 28.951845,66.755623 28.066441,67.054008 
	C27.710970,68.700600 27.047972,70.346695 27.045254,71.993866 
	C26.985937,107.968170 26.999998,143.942596 27.000004,179.917007 
	C27.000010,203.400299 26.963308,226.883774 27.082407,250.366470 
	C27.090380,251.938278 28.278261,253.504120 29.011101,255.726715 
	C29.678875,256.532654 30.346649,257.338562 30.963123,258.954102 
	C30.648851,260.178680 30.414486,261.430634 30.006351,262.623077 
	C28.316393,267.560699 33.835346,269.862122 34.257729,274.742249 
	C34.788658,275.364258 35.545509,275.901367 35.816013,276.621216 
	C38.959362,284.985992 45.440769,290.049835 53.181656,294.678711 
	C53.758167,294.700195 54.334679,294.721680 55.067303,295.544464 
	C56.100681,296.309113 57.134060,297.073730 58.840397,298.017151 
	C59.538315,298.057953 60.236233,298.098755 60.950718,298.072693 
	C60.950718,298.072693 60.881859,298.074799 61.081680,298.576233 
z"/>
<path fill="#0390F3" opacity="1.000000" stroke="none" 
	d="
M34.141125,274.056793 
	C33.835346,269.862122 28.316393,267.560699 30.006351,262.623077 
	C30.414486,261.430634 30.648851,260.178680 31.198671,258.331512 
	C31.621756,256.408600 31.809290,255.108292 31.999058,253.359253 
	C32.026096,193.933594 32.050903,134.956650 32.382454,75.861252 
	C33.240135,74.329796 33.695404,72.869301 34.367191,71.516312 
	C35.137596,69.964706 36.100029,68.508446 36.982704,67.478210 
	C36.991146,125.529121 36.984020,183.112610 37.041981,240.696014 
	C37.044430,243.130463 37.651398,245.564270 38.121071,248.351074 
	C38.459690,249.340881 38.692101,249.969116 38.842739,250.616379 
	C43.545025,270.821228 57.911427,282.293945 78.510963,282.293518 
	C133.171158,282.292419 187.831345,282.304199 242.491547,282.289337 
	C264.477661,282.283356 281.566437,265.478851 281.604401,243.460236 
	C281.704163,185.633926 281.687714,127.807236 281.592773,69.980904 
	C281.574402,58.789795 277.169037,49.298279 269.148010,41.451134 
	C263.472412,35.898594 256.353729,33.256271 248.630829,30.835964 
	C245.980453,30.411556 243.679779,30.028570 241.378799,30.026844 
	C185.256653,29.984724 129.134491,29.983173 73.123032,29.619904 
	C76.155922,28.510414 79.078110,27.755360 82.468925,27.000675 
	C135.061432,27.001369 187.185349,27.026251 239.309021,26.917936 
	C241.541702,26.913298 243.771835,25.677874 246.416016,25.007809 
	C249.112808,24.645512 251.396713,24.291210 253.965027,24.146927 
	C259.015381,25.865093 263.729736,27.592262 268.581696,28.735479 
	C269.880005,29.041395 271.598480,27.564356 273.124054,26.905838 
	C273.696136,27.044598 274.268219,27.183357 274.808014,27.839138 
	C270.545197,32.554741 276.134796,31.858473 277.298737,33.268120 
	C281.559845,38.428783 285.951660,43.481544 290.507141,48.824654 
	C291.032867,47.821609 291.543640,46.847004 292.054443,45.872395 
	C293.153809,48.185608 294.253174,50.498825 295.598114,53.345390 
	C295.112976,56.991543 293.626068,60.421486 298.846527,61.038265 
	C298.890717,62.381351 298.934875,63.724442 298.568146,65.525352 
	C297.440887,66.739265 296.724518,67.495346 296.003967,68.677719 
	C295.981506,71.731712 295.963257,74.359413 295.613647,77.179207 
	C294.854065,79.073486 294.053802,80.775192 294.051636,82.477921 
	C293.985321,134.748322 293.976624,187.018875 294.079163,239.289154 
	C294.082886,241.198288 295.295654,243.105057 295.954895,245.456360 
	C296.019653,248.506516 296.074554,251.113220 295.910522,253.961639 
	C295.448029,254.801834 295.204498,255.400299 294.821442,256.241333 
	C294.168121,259.757843 294.184723,263.245514 292.978027,266.240265 
	C291.954010,268.781586 292.408508,269.541260 294.707214,270.041473 
	C294.079865,272.032562 293.452484,274.023621 292.321228,275.807556 
	C291.366028,274.798248 290.914703,273.996063 290.642273,273.511810 
	C284.882111,279.696808 279.285950,285.705750 273.497437,291.921234 
	C273.757294,292.286560 274.410919,293.205566 275.064575,294.124573 
	C274.613495,294.693695 274.162415,295.262817 273.271362,295.699646 
	C271.304321,292.204041 269.022400,292.554993 266.344971,294.132690 
	C264.834442,295.022766 263.231262,295.864929 261.559753,296.347260 
	C258.983429,297.090820 256.312592,297.506927 253.361023,297.874817 
	C250.694580,297.453125 248.348984,297.218506 245.816589,296.646851 
	C243.932449,295.872986 242.235596,295.056763 240.537674,295.054474 
	C189.588623,294.986511 138.639435,294.977570 87.690521,295.082489 
	C85.791122,295.086395 83.894272,296.322083 81.557907,296.991638 
	C78.812820,297.005249 76.506050,297.010956 73.836815,296.988800 
	C69.729019,296.258820 65.548065,296.356384 62.364796,294.622406 
	C59.373108,292.992737 57.387024,292.579315 54.911190,294.743164 
	C54.334679,294.721680 53.758167,294.700195 53.210114,294.160278 
	C53.559944,292.548798 54.494774,290.889099 54.097912,290.459412 
	C52.247387,288.455902 49.953861,286.871704 47.960064,284.987976 
	C45.110733,282.295990 41.067848,279.920288 39.939537,276.593811 
	C38.535072,272.453156 36.693851,273.432526 34.141125,274.056793 
z"/>
<path fill="#0000FF" opacity="1.000000" stroke="none" 
	d="
M299.104492,66.946083 
	C299.736328,68.515877 300.912140,70.083344 300.918884,71.655807 
	C301.032257,98.130287 301.000000,124.605400 301.000000,151.080368 
	C301.000000,184.049194 301.015106,217.018066 300.955536,249.986786 
	C300.952576,251.638565 300.302795,253.289169 299.312927,254.757507 
	C298.292145,254.378265 297.912628,254.181839 297.573395,253.519547 
	C297.631012,225.123001 297.673401,197.192291 297.659271,169.261627 
	C297.642181,135.513123 297.577209,101.764641 297.835327,67.902542 
	C298.459930,67.507988 298.782196,67.227036 299.104492,66.946083 
z"/>
<path fill="#0000FF" opacity="1.000000" stroke="none" 
	d="
M28.917353,255.072739 
	C28.278261,253.504120 27.090380,251.938278 27.082407,250.366470 
	C26.963308,226.883774 27.000010,203.400299 27.000004,179.917007 
	C26.999998,143.942596 26.985937,107.968170 27.045254,71.993866 
	C27.047972,70.346695 27.710970,68.700600 28.696255,67.226364 
	C29.687532,67.597946 30.048994,67.797188 30.363106,68.463257 
	C30.296322,110.169060 30.257652,151.408035 30.265610,192.647003 
	C30.269556,213.098465 30.359238,233.549942 30.120705,254.118042 
	C29.526636,254.514023 29.221992,254.793381 28.917353,255.072739 
z"/>
<path fill="#0000FF" opacity="1.000000" stroke="none" 
	d="
M71.908768,21.910473 
	C73.483704,21.273668 75.056053,20.089376 76.633957,20.081951 
	C101.440842,19.965219 126.248428,20.000008 151.055862,20.000004 
	C184.354431,19.999996 217.653015,19.985518 250.951477,20.042938 
	C252.611969,20.045799 254.271362,20.672962 255.684875,21.558340 
	C254.959991,22.502386 254.481522,22.897526 253.536789,23.240685 
	C194.405380,23.171288 135.740234,23.152592 77.075089,23.147297 
	C76.081581,23.147207 75.088051,23.309462 73.794067,23.254601 
	C72.965324,22.712318 72.437042,22.311396 71.908768,21.910473 
z"/>
<path fill="#0000FF" opacity="1.000000" stroke="none" 
	d="
M256.026367,300.144653 
	C254.452682,300.763123 252.880569,301.916718 251.305069,301.921356 
	C216.353378,302.024078 181.401321,301.999969 146.449326,302.000000 
	C123.314438,302.000031 100.179482,302.020721 77.044777,301.956421 
	C75.385033,301.951813 73.727005,301.325714 72.287338,300.378235 
	C73.046837,299.404755 73.587189,299.041595 74.583626,298.742401 
	C118.031654,298.828033 161.023605,298.866730 204.015549,298.862823 
	C220.677017,298.861298 237.338486,298.763245 254.175690,298.975952 
	C254.909744,299.543396 255.468048,299.844025 256.026367,300.144653 
z"/>
<path fill="#0389F3" opacity="1.000000" stroke="none" 
	d="
M71.886658,21.944065 
	C72.437042,22.311396 72.965324,22.712318 73.996445,23.540121 
	C76.990593,24.322470 79.481888,24.677938 81.979790,25.361040 
	C81.991028,26.125883 81.995667,26.563093 82.000305,27.000305 
	C79.078110,27.755360 76.155922,28.510414 72.843414,29.696817 
	C71.966179,30.430332 71.479256,30.732496 70.670624,31.223709 
	C62.769859,33.074017 55.969151,36.245735 50.271271,41.625557 
	C43.500565,48.018318 40.209232,56.215523 37.831032,65.217484 
	C37.423874,65.961578 37.201454,66.486176 36.979042,67.010765 
	C36.100029,68.508446 35.137596,69.964706 34.367191,71.516312 
	C33.695404,72.869301 33.240135,74.329796 32.363617,75.424026 
	C32.015491,72.792854 31.992956,70.480446 31.885277,67.850006 
	C30.922129,66.988899 30.044123,66.445824 29.166119,65.902740 
	C29.115444,64.544586 29.064770,63.186436 29.438698,61.385094 
	C30.825424,60.045025 31.787544,59.148151 32.749664,58.251274 
	C31.885206,57.490292 31.020744,56.729309 30.156281,55.968327 
	C31.516859,53.075974 32.877438,50.183617 34.823364,47.207825 
	C36.195469,47.625816 36.982227,48.127247 37.044006,48.166622 
	C42.972424,42.016247 48.632076,36.144699 54.489269,30.068213 
	C54.241985,29.718086 53.590302,28.795383 52.938618,27.872681 
	C55.867870,22.544767 61.993305,24.493475 66.644905,22.455002 
	C69.312820,26.075644 70.908348,25.712866 71.929985,22.024429 
	C71.929985,22.024429 71.864548,21.977659 71.886658,21.944065 
M61.336315,28.092133 
	C61.387581,27.529985 61.438850,26.967838 61.490116,26.405689 
	C61.338383,26.428473 61.058365,26.437473 61.054218,26.476110 
	C60.994972,27.027613 60.973011,27.583122 61.336315,28.092133 
z"/>
<path fill="#0078FF" opacity="1.000000" stroke="none" 
	d="
M34.199425,274.399536 
	C36.693851,273.432526 38.535072,272.453156 39.939537,276.593811 
	C41.067848,279.920288 45.110733,282.295990 47.960064,284.987976 
	C49.953861,286.871704 52.247387,288.455902 54.097912,290.459412 
	C54.494774,290.889099 53.559944,292.548798 53.091476,293.884918 
	C45.440769,290.049835 38.959362,284.985992 35.816013,276.621216 
	C35.545509,275.901367 34.788658,275.364258 34.199425,274.399536 
z"/>
<path fill="#0078FF" opacity="1.000000" stroke="none" 
	d="
M52.587418,27.940277 
	C53.590302,28.795383 54.241985,29.718086 54.489269,30.068213 
	C48.632076,36.144699 42.972424,42.016247 37.044006,48.166622 
	C36.982227,48.127247 36.195469,47.625816 35.138206,47.035057 
	C37.975716,38.173828 44.871918,32.876198 52.587418,27.940277 
z"/>
<path fill="#0079FE" opacity="1.000000" stroke="none" 
	d="
M275.424744,294.052368 
	C274.410919,293.205566 273.757294,292.286560 273.497437,291.921234 
	C279.285950,285.705750 284.882111,279.696808 290.642273,273.511810 
	C290.914703,273.996063 291.366028,274.798248 291.937317,275.863037 
	C289.541962,280.637024 287.855804,285.701172 283.135803,288.694611 
	C280.591492,290.308197 278.229279,292.208923 275.424744,294.052368 
z"/>
<path fill="#007AFE" opacity="1.000000" stroke="none" 
	d="
M291.900757,45.548981 
	C291.543640,46.847004 291.032867,47.821609 290.507141,48.824654 
	C285.951660,43.481544 281.559845,38.428783 277.298737,33.268120 
	C276.134796,31.858473 270.545197,32.554741 274.921051,28.117615 
	C277.755463,29.707924 280.366333,31.667265 283.151245,33.336182 
	C287.752991,36.093853 289.057861,41.140110 291.900757,45.548981 
z"/>
<path fill="#0073FB" opacity="1.000000" stroke="none" 
	d="
M254.003052,23.292664 
	C254.481522,22.897526 254.959991,22.502386 255.732391,21.981281 
	C259.427460,22.568985 262.828583,23.282654 266.633148,24.383230 
	C267.608704,25.515800 268.180786,26.261463 268.752899,27.007126 
	C269.098480,26.060442 269.444061,25.113760 269.789642,24.167080 
	C270.815857,24.596935 271.842041,25.026789 272.807495,25.952164 
	C272.773804,26.694717 272.907959,26.873333 273.149139,26.983536 
	C273.149139,26.983536 273.086151,26.960918 273.105103,26.933380 
	C271.598480,27.564356 269.880005,29.041395 268.581696,28.735479 
	C263.729736,27.592262 259.015381,25.865093 254.036896,23.981003 
	C253.824387,23.605055 254.003052,23.292660 254.003052,23.292664 
z"/>
<path fill="#0073FB" opacity="1.000000" stroke="none" 
	d="
M74.127533,298.678436 
	C73.587189,299.041595 73.046837,299.404755 72.239212,299.955200 
	C68.955490,299.445587 65.939041,298.748688 62.221207,298.041809 
	C61.307167,298.046143 61.094513,298.060486 60.881859,298.074799 
	C60.881859,298.074799 60.950718,298.072693 60.943016,297.760162 
	C60.504795,296.487457 60.074272,295.527252 59.643749,294.567078 
	C59.314159,294.649048 58.984570,294.731049 58.654980,294.813019 
	C58.492466,295.821472 58.329952,296.829926 58.167439,297.838379 
	C57.134060,297.073730 56.100681,296.309113 54.989246,295.143799 
	C57.387024,292.579315 59.373108,292.992737 62.364796,294.622406 
	C65.548065,296.356384 69.729019,296.258820 73.823624,297.265808 
	C74.157791,297.939911 74.142662,298.309174 74.127533,298.678436 
z"/>
<path fill="#0073FB" opacity="1.000000" stroke="none" 
	d="
M256.460510,300.089966 
	C255.468048,299.844025 254.909744,299.543396 254.086075,298.819214 
	C253.820724,298.395630 253.681839,298.061890 253.681839,298.061890 
	C256.312592,297.506927 258.983429,297.090820 261.559753,296.347260 
	C263.231262,295.864929 264.834442,295.022766 266.344971,294.132690 
	C269.022400,292.554993 271.304321,292.204041 273.006226,295.782959 
	C272.303955,296.629150 271.426819,297.259705 270.173676,297.552124 
	C269.399963,296.459869 269.002289,295.705750 268.604614,294.951599 
	C268.073395,295.918884 267.542145,296.886169 267.010925,297.853455 
	C263.638794,298.580719 260.266724,299.307983 256.460510,300.089966 
z"/>
<path fill="#007CFF" opacity="1.000000" stroke="none" 
	d="
M294.904663,269.739014 
	C292.408508,269.541260 291.954010,268.781586 292.978027,266.240265 
	C294.184723,263.245514 294.168121,259.757843 295.209320,256.245972 
	C296.767944,256.014160 297.799133,256.020264 298.830322,256.026398 
	C298.279755,260.105438 297.793213,264.195526 297.095825,268.249329 
	C297.010620,268.744751 295.794281,269.045563 294.904663,269.739014 
z"/>
<path fill="#0067FE" opacity="1.000000" stroke="none" 
	d="
M298.800842,60.667198 
	C293.626068,60.421486 295.112976,56.991543 295.925903,53.514053 
	C296.923767,55.531624 297.839447,57.913879 298.800842,60.667198 
z"/>
<path fill="#006EFF" opacity="1.000000" stroke="none" 
	d="
M30.088970,56.342293 
	C31.020744,56.729309 31.885206,57.490292 32.749664,58.251274 
	C31.787544,59.148151 30.825424,60.045025 29.508919,60.982224 
	C29.443579,59.587116 29.732618,58.151688 30.088970,56.342293 
z"/>
<path fill="#0085FE" opacity="1.000000" stroke="none" 
	d="
M71.516983,22.015589 
	C70.908348,25.712866 69.312820,26.075644 67.036453,22.514927 
	C68.350311,22.116802 69.727142,22.061775 71.516983,22.015589 
z"/>
<path fill="#006EFF" opacity="1.000000" stroke="none" 
	d="
M28.964226,255.399719 
	C29.221992,254.793381 29.526636,254.514023 30.379679,254.054245 
	C31.284328,253.851868 31.640577,253.829926 31.996826,253.807983 
	C31.809290,255.108292 31.621756,256.408600 31.224323,257.926697 
	C30.346649,257.338562 29.678875,256.532654 28.964226,255.399719 
z"/>
<path fill="#0390F3" opacity="1.000000" stroke="none" 
	d="
M58.503918,297.927765 
	C58.329952,296.829926 58.492466,295.821472 58.654980,294.813019 
	C58.984570,294.731049 59.314159,294.649048 59.643749,294.567078 
	C60.074272,295.527252 60.504795,296.487457 60.934734,297.793579 
	C60.236233,298.098755 59.538315,298.057953 58.503918,297.927765 
z"/>
<path fill="#0390F3" opacity="1.000000" stroke="none" 
	d="
M269.449615,24.082573 
	C269.444061,25.113760 269.098480,26.060442 268.752899,27.007126 
	C268.180786,26.261463 267.608704,25.515800 267.023743,24.458338 
	C267.710449,24.097050 268.410034,24.047560 269.449615,24.082573 
z"/>
<path fill="#0390F3" opacity="1.000000" stroke="none" 
	d="
M267.356506,297.927490 
	C267.542145,296.886169 268.073395,295.918884 268.604614,294.951599 
	C269.002289,295.705750 269.399963,296.459869 269.793396,297.523529 
	C269.093475,297.889191 268.397797,297.945374 267.356506,297.927490 
z"/>
<path fill="#0067FE" opacity="1.000000" stroke="none" 
	d="
M298.907532,255.785492 
	C297.799133,256.020264 296.767944,256.014160 295.348846,256.003418 
	C295.204498,255.400299 295.448029,254.801834 296.146912,253.995087 
	C296.925446,253.792419 297.235718,253.858627 297.533081,253.985413 
	C297.912628,254.181839 298.292145,254.378265 298.888458,254.813950 
	C299.065063,255.216995 299.024902,255.380783 298.907532,255.785492 
z"/>
<path fill="#0067FE" opacity="1.000000" stroke="none" 
	d="
M299.045166,66.673401 
	C298.782196,67.227036 298.459930,67.507988 297.587769,67.972137 
	C296.694641,68.187370 296.351410,68.219391 296.008148,68.251419 
	C296.724518,67.495346 297.440887,66.739265 298.496887,65.923050 
	C298.886261,66.042198 298.936066,66.221458 299.045166,66.673401 
z"/>
<path fill="#006EFF" opacity="1.000000" stroke="none" 
	d="
M29.094204,66.156754 
	C30.044123,66.445824 30.922129,66.988899 31.622663,67.842133 
	C31.100281,68.100342 30.755367,68.048386 30.410456,67.996422 
	C30.048994,67.797188 29.687532,67.597946 29.121346,67.163391 
	C28.951845,66.755623 28.987070,66.583191 29.094204,66.156754 
z"/>
<path fill="#0390F3" opacity="1.000000" stroke="none" 
	d="
M273.100342,26.785179 
	C272.907959,26.873333 272.773804,26.694717 272.791656,26.343565 
	C272.836609,26.239443 273.051575,26.586824 273.100342,26.785179 
z"/>
<path fill="#0390F3" opacity="1.000000" stroke="none" 
	d="
M60.981770,298.325500 
	C61.094513,298.060486 61.307167,298.046143 61.839714,298.040039 
	C61.800297,298.224243 61.440987,298.400238 60.981770,298.325500 
z"/>
<path fill="#FEFEFE" opacity="1.000000" stroke="none" 
	d="
M38.015766,64.997986 
	C40.209232,56.215523 43.500565,48.018318 50.271271,41.625557 
	C55.969151,36.245735 62.769859,33.074017 71.136742,31.281853 
	C130.943161,31.118973 189.961761,31.086994 248.980362,31.055016 
	C256.353729,33.256271 263.472412,35.898594 269.148010,41.451134 
	C277.169037,49.298279 281.574402,58.789795 281.592773,69.980904 
	C281.687714,127.807236 281.704163,185.633926 281.604401,243.460236 
	C281.566437,265.478851 264.477661,282.283356 242.491547,282.289337 
	C187.831345,282.304199 133.171158,282.292419 78.510963,282.293518 
	C57.911427,282.293945 43.545025,270.821228 38.842739,250.616379 
	C38.692101,249.969116 38.459690,249.340881 38.182396,247.885895 
	C38.071514,186.378006 38.043640,125.687996 38.015766,64.997986 
M183.727570,154.954956 
	C184.150757,154.969879 184.573959,154.984802 185.000000,155.001221 
	C185.000000,155.001221 185.003937,155.001617 185.007416,155.784332 
	C186.299088,160.204010 187.590759,164.623688 188.871536,169.841919 
	C189.782578,173.199921 190.181854,176.833359 191.787827,179.817352 
	C192.827484,181.749115 195.592056,183.748047 197.656860,183.828018 
	C199.414001,183.896057 202.077576,181.624084 202.920502,179.749161 
	C204.560760,176.100708 205.206177,172.004990 206.701584,167.501236 
	C207.683762,163.714508 208.665939,159.927780 209.923004,155.760117 
	C210.544586,155.507965 211.166168,155.255798 211.705566,155.869461 
	C212.187973,158.917221 212.670380,161.964966 213.077805,165.838257 
	C213.650696,169.952621 214.207443,174.069321 214.801468,178.180634 
	C215.296494,181.606812 216.508347,184.410995 220.715515,184.027359 
	C224.988785,183.637695 225.700104,180.590164 225.275925,177.171219 
	C224.766907,173.068573 223.898346,169.010559 223.259399,164.086777 
	C222.649185,160.685455 222.038986,157.284119 221.481796,153.017792 
	C220.896133,149.682617 220.310471,146.347458 219.804382,142.231400 
	C219.607956,141.099457 219.422424,139.965515 219.213104,138.835953 
	C218.545944,135.235748 216.761490,132.751755 212.786972,132.547958 
	C208.985336,132.353012 206.524811,134.269485 205.260696,137.699814 
	C204.527542,139.689362 204.120163,141.798935 203.189697,144.452118 
	C202.137924,148.302567 201.086166,152.153000 199.651978,156.596848 
	C198.971695,158.530533 198.291397,160.464218 197.285736,163.322784 
	C195.946716,159.562393 194.957535,156.784439 193.969711,153.226685 
	C192.609497,148.821518 191.249268,144.416351 189.899109,139.281631 
	C188.874893,134.872528 186.351593,132.171143 181.577805,132.532227 
	C177.050491,132.874695 175.472916,135.871002 175.170197,140.810410 
	C174.450546,145.541473 173.730896,150.272522 172.715775,155.731522 
	C172.136124,159.822174 171.556488,163.912842 170.665634,168.733154 
	C170.156921,171.853806 169.563812,174.963669 169.162338,178.098053 
	C168.727631,181.491867 170.323227,183.536362 173.704559,184.040375 
	C176.896088,184.516098 178.893387,183.055939 179.435028,179.914780 
	C180.169296,175.656494 180.727737,171.367889 181.720734,166.416809 
	C182.203644,162.643890 182.686569,158.870972 183.083969,155.135971 
	C183.083969,155.135971 183.124207,155.220413 183.727570,154.954956 
M159.696136,156.316071 
	C155.539856,154.538361 151.428818,152.642441 147.209869,151.028534 
	C144.787140,150.101746 142.665833,149.240646 143.652924,145.507080 
	C145.422119,144.647491 147.138489,143.259399 148.975250,143.075790 
	C150.840973,142.889267 152.874573,144.411835 154.745102,144.235611 
	C156.914169,144.031281 159.767090,143.387451 160.924896,141.868546 
	C162.887207,139.294235 161.574448,136.516144 158.961868,134.589325 
	C149.254181,127.429756 133.200668,134.061584 131.100067,146.789795 
	C131.506180,154.837769 134.955566,158.820023 144.363617,161.851349 
	C147.928604,164.027222 154.064255,163.208237 153.249725,170.376801 
	C149.167053,176.231659 144.113876,173.232300 139.350128,171.766891 
	C136.154770,170.783936 133.414597,170.536148 131.800201,174.101624 
	C130.263260,177.496002 131.664749,180.683151 134.640900,181.525391 
	C139.917740,183.018677 145.553452,184.146942 150.987213,183.955765 
	C157.894226,183.712738 163.773605,179.835388 165.625153,168.424850 
	C165.916901,163.544708 164.285080,159.593338 159.696136,156.316071 
M230.362122,142.263275 
	C230.737976,146.247131 231.113831,150.230988 231.704086,154.893600 
	C234.742737,156.994995 237.657623,159.313126 240.853867,161.138550 
	C244.240860,163.072922 247.895309,164.539001 251.595230,166.972046 
	C251.357437,172.512039 249.488754,174.190323 244.266937,173.320175 
	C241.985474,172.940002 239.717133,172.368759 237.512726,171.665283 
	C234.301147,170.640396 231.516037,170.716019 230.036819,174.258377 
	C228.523926,177.881378 230.288620,180.256668 233.333954,182.067001 
	C240.241379,186.173187 252.689407,185.132858 258.643982,179.696838 
	C262.984009,175.734772 264.856903,170.826447 263.260010,164.159576 
	C261.636963,161.550598 260.604462,157.980759 258.262543,156.541443 
	C253.968109,153.902115 248.901260,152.519623 243.618759,150.109695 
	C240.641693,148.247803 241.451614,145.937424 243.576538,143.317963 
	C246.816620,143.713135 250.098251,144.602493 253.282578,144.334686 
	C255.510513,144.147324 258.517120,142.880249 259.466644,141.154770 
	C260.204498,139.813934 258.950134,136.246475 257.464508,135.004013 
	C250.227951,128.952072 233.171661,132.253311 230.362122,142.263275 
M53.811768,156.891983 
	C53.463688,163.636566 54.164825,170.156296 58.013779,176.720612 
	C71.239723,200.005524 100.272827,201.263351 115.984818,178.806580 
	C116.407600,177.902664 116.830376,176.998749 117.752800,175.608704 
	C118.866699,171.414734 119.980591,167.220764 121.380554,162.313614 
	C120.206917,156.210419 119.033279,150.107208 117.763023,143.324646 
	C116.431595,141.226196 115.276726,138.987762 113.741188,137.051147 
	C99.867783,119.554047 72.671371,120.262032 60.132763,138.830566 
	C58.104664,144.552780 56.076561,150.274994 53.811768,156.891983 
z"/>
<path fill="#00ACFF" opacity="1.000000" stroke="none" 
	d="
M296.003967,68.677719 
	C296.351410,68.219391 296.694641,68.187370 297.285461,68.085739 
	C297.577209,101.764641 297.642181,135.513123 297.659271,169.261627 
	C297.673401,197.192291 297.631012,225.123001 297.573395,253.519547 
	C297.235718,253.858627 296.925446,253.792419 296.365845,253.753357 
	C296.074554,251.113220 296.019653,248.506516 295.968475,244.986801 
	C295.963104,188.378220 295.954041,132.682663 295.944977,76.987106 
	C295.963257,74.359413 295.981506,71.731712 296.003967,68.677719 
z"/>
<path fill="#00ACFF" opacity="1.000000" stroke="none" 
	d="
M30.363106,68.463257 
	C30.755367,68.048386 31.100281,68.100342 31.707806,68.160172 
	C31.992956,70.480446 32.015491,72.792854 32.056870,75.542480 
	C32.050903,134.956650 32.026096,193.933594 31.999058,253.359253 
	C31.640577,253.829926 31.284328,253.851868 30.669106,253.937607 
	C30.359238,233.549942 30.269556,213.098465 30.265610,192.647003 
	C30.257652,151.408035 30.296322,110.169060 30.363106,68.463257 
z"/>
<path fill="#00ADFF" opacity="1.000000" stroke="none" 
	d="
M253.536789,23.240681 
	C254.003052,23.292660 253.824387,23.605055 253.752502,23.770981 
	C251.396713,24.291210 249.112808,24.645512 245.947144,25.003323 
	C190.701324,25.015690 136.337250,25.024549 81.973190,25.033409 
	C79.481888,24.677938 76.990593,24.322470 74.296913,23.681480 
	C75.088051,23.309462 76.081581,23.147207 77.075089,23.147297 
	C135.740234,23.152592 194.405380,23.171288 253.536789,23.240681 
z"/>
<path fill="#00ADFF" opacity="1.000000" stroke="none" 
	d="
M253.361023,297.874817 
	C253.681839,298.061890 253.820724,298.395630 253.910339,298.552399 
	C237.338486,298.763245 220.677017,298.861298 204.015549,298.862823 
	C161.023605,298.866730 118.031654,298.828033 74.583618,298.742401 
	C74.142662,298.309174 74.157791,297.939911 74.186096,297.293640 
	C76.506050,297.010956 78.812820,297.005249 82.026855,296.996185 
	C137.290543,296.989838 191.646957,296.986877 246.003372,296.983887 
	C248.348984,297.218506 250.694580,297.453125 253.361023,297.874817 
z"/>
<path fill="#009CEB" opacity="1.000000" stroke="none" 
	d="
M295.613647,77.179207 
	C295.954041,132.682663 295.963104,188.378220 295.958557,244.543335 
	C295.295654,243.105057 294.082886,241.198288 294.079163,239.289154 
	C293.976624,187.018875 293.985321,134.748322 294.051636,82.477921 
	C294.053802,80.775192 294.854065,79.073486 295.613647,77.179207 
z"/>
<path fill="#009AE8" opacity="1.000000" stroke="none" 
	d="
M81.979790,25.361040 
	C136.337250,25.024549 190.701324,25.015690 245.534271,25.011316 
	C243.771835,25.677874 241.541702,26.913298 239.309021,26.917936 
	C187.185349,27.026251 135.061432,27.001369 82.468925,27.000675 
	C81.995667,26.563093 81.991028,26.125883 81.979790,25.361040 
z"/>
<path fill="#009AE8" opacity="1.000000" stroke="none" 
	d="
M245.816589,296.646851 
	C191.646957,296.986877 137.290543,296.989838 82.465187,296.988281 
	C83.894272,296.322083 85.791122,295.086395 87.690521,295.082489 
	C138.639435,294.977570 189.588623,294.986511 240.537674,295.054474 
	C242.235596,295.056763 243.932449,295.872986 245.816589,296.646851 
z"/>
<path fill="#0081F1" opacity="1.000000" stroke="none" 
	d="
M37.831032,65.217484 
	C38.043640,125.687996 38.071514,186.378006 38.038071,247.533203 
	C37.651398,245.564270 37.044430,243.130463 37.041981,240.696014 
	C36.984020,183.112610 36.991146,125.529121 36.982704,67.478210 
	C37.201454,66.486176 37.423874,65.961578 37.831032,65.217484 
z"/>
<path fill="#0080F1" opacity="1.000000" stroke="none" 
	d="
M248.630829,30.835964 
	C189.961761,31.086994 130.943161,31.118973 71.458450,31.092806 
	C71.479256,30.732496 71.966179,30.430332 72.732712,30.051254 
	C129.134491,29.983173 185.256653,29.984724 241.378799,30.026844 
	C243.679779,30.028570 245.980453,30.411556 248.630829,30.835964 
z"/>
<path fill="#0085FE" opacity="1.000000" stroke="none" 
	d="
M61.139183,28.114899 
	C60.973011,27.583122 60.994972,27.027613 61.054218,26.476110 
	C61.058365,26.437473 61.338383,26.428473 61.490116,26.405689 
	C61.438850,26.967838 61.387581,27.529985 61.139183,28.114899 
z"/>
<path fill="#1E96FD" opacity="1.000000" stroke="none" 
	d="
M115.533073,179.212570 
	C100.272827,201.263351 71.239723,200.005524 58.411896,176.367599 
	C62.209869,175.674774 65.609726,175.334961 69.261879,175.215302 
	C72.951622,180.937485 78.303772,183.688721 84.317566,182.553513 
	C91.190369,181.256149 97.753731,178.319427 104.777466,176.411621 
	C108.579941,177.556320 112.056503,178.384445 115.533073,179.212570 
z"/>
<path fill="#0FAFFB" opacity="1.000000" stroke="none" 
	d="
M60.688313,138.381821 
	C72.671371,120.262032 99.867783,119.554047 113.741188,137.051147 
	C115.276726,138.987762 116.431595,141.226196 117.365860,143.663635 
	C113.700920,144.001999 110.433151,144.001343 107.041946,143.660187 
	C104.643097,137.244354 100.684578,134.048553 94.357628,135.461136 
	C88.712944,136.721390 83.503380,139.930496 77.864594,141.953568 
	C74.976646,141.084671 72.331223,140.514023 69.673767,140.006332 
	C66.684273,139.435211 63.683933,138.920868 60.688313,138.381821 
z"/>
<path fill="#59B152" opacity="1.000000" stroke="none" 
	d="
M263.211731,164.923065 
	C264.856903,170.826447 262.984009,175.734772 258.643982,179.696838 
	C252.689407,185.132858 240.241379,186.173187 233.333954,182.067001 
	C230.288620,180.256668 228.523926,177.881378 230.036819,174.258377 
	C231.516037,170.716019 234.301147,170.640396 237.512726,171.665283 
	C239.717133,172.368759 241.985474,172.940002 244.266937,173.320175 
	C249.488754,174.190323 251.357437,172.512039 251.977325,166.549500 
	C255.976852,165.725662 259.594299,165.324371 263.211731,164.923065 
z"/>
<path fill="#179EFC" opacity="1.000000" stroke="none" 
	d="
M121.094498,163.026794 
	C119.980591,167.220764 118.866699,171.414734 117.034058,175.834305 
	C112.683678,175.640106 109.052032,175.220306 105.537292,174.398712 
	C105.864281,172.427826 106.074371,170.858719 106.333786,168.921219 
	C101.113121,170.830246 96.578606,172.774658 91.873589,174.124954 
	C87.533394,175.370544 83.547066,174.144836 81.042229,170.192352 
	C79.373093,167.558533 79.413445,165.466522 83.437790,164.524460 
	C88.364929,163.371048 93.097008,161.384338 97.990402,160.156799 
	C99.651344,161.368958 101.205666,162.807419 102.824562,162.884186 
	C108.903122,163.172455 115.002762,163.016373 121.094498,163.026794 
z"/>
<path fill="#5BB350" opacity="1.000000" stroke="none" 
	d="
M165.340729,169.080017 
	C163.773605,179.835388 157.894226,183.712738 150.987213,183.955765 
	C145.553452,184.146942 139.917740,183.018677 134.640900,181.525391 
	C131.664749,180.683151 130.263260,177.496002 131.800201,174.101624 
	C133.414597,170.536148 136.154770,170.783936 139.350128,171.766891 
	C144.113876,173.232300 149.167053,176.231659 153.937164,170.147781 
	C158.196640,169.639175 161.768677,169.359589 165.340729,169.080017 
z"/>
<path fill="#11A3FC" opacity="1.000000" stroke="none" 
	d="
M121.237526,162.670197 
	C115.002762,163.016373 108.903122,163.172455 102.824562,162.884186 
	C101.205666,162.807419 99.651344,161.368958 98.154083,159.869385 
	C103.527611,155.481308 106.764870,150.574753 107.165382,144.000687 
	C110.433151,144.001343 113.700920,144.001999 117.414162,144.003326 
	C119.033279,150.107208 120.206917,156.210419 121.237526,162.670197 
z"/>
<path fill="#72C949" opacity="1.000000" stroke="none" 
	d="
M131.314407,146.012833 
	C133.200668,134.061584 149.254181,127.429756 158.961868,134.589325 
	C161.574448,136.516144 162.887207,139.294235 160.924896,141.868546 
	C159.767090,143.387451 156.914169,144.031281 154.745102,144.235611 
	C152.874573,144.411835 150.840973,142.889267 148.975250,143.075790 
	C147.138489,143.259399 145.422119,144.647491 142.951324,145.772018 
	C138.604614,146.028915 134.959503,146.020874 131.314407,146.012833 
z"/>
<path fill="#0FA8FB" opacity="1.000000" stroke="none" 
	d="
M60.410538,138.606201 
	C63.683933,138.920868 66.684273,139.435211 69.673767,140.006332 
	C72.331223,140.514023 74.976646,141.084671 77.722107,142.246643 
	C74.925667,147.245529 72.034485,151.625320 68.668427,156.004211 
	C63.478512,156.001282 58.763485,155.999252 54.048462,155.997208 
	C56.076561,150.274994 58.104664,144.552780 60.410538,138.606201 
z"/>
<path fill="#63BB4E" opacity="1.000000" stroke="none" 
	d="
M263.235870,164.541321 
	C259.594299,165.324371 255.976852,165.725662 251.896179,166.168274 
	C247.895309,164.539001 244.240860,163.072922 240.853867,161.138550 
	C237.657623,159.313126 234.742737,156.994995 232.007553,154.386200 
	C234.245285,153.584579 236.230545,153.472153 238.100159,152.947571 
	C240.173996,152.365692 242.142227,151.407471 244.156448,150.613113 
	C248.901260,152.519623 253.968109,153.902115 258.262543,156.541443 
	C260.604462,157.980759 261.636963,161.550598 263.235870,164.541321 
z"/>
<path fill="#70C74A" opacity="1.000000" stroke="none" 
	d="
M230.846375,141.691620 
	C233.171661,132.253311 250.227951,128.952072 257.464508,135.004013 
	C258.950134,136.246475 260.204498,139.813934 259.466644,141.154770 
	C258.517120,142.880249 255.510513,144.147324 253.282578,144.334686 
	C250.098251,144.602493 246.816620,143.713135 242.807999,143.223969 
	C240.148331,142.892044 238.256699,142.657990 236.366196,142.415100 
	C234.525665,142.178635 232.686264,141.933151 230.846375,141.691620 
z"/>
<path fill="#6BC34A" opacity="1.000000" stroke="none" 
	d="
M189.889038,140.011185 
	C191.249268,144.416351 192.609497,148.821518 193.567017,153.650330 
	C190.444199,154.383194 187.724060,154.692398 185.003937,155.001617 
	C185.003937,155.001617 185.000000,155.001221 184.910187,154.777054 
	C184.254990,154.775391 183.689590,154.997894 183.124207,155.220413 
	C183.124207,155.220413 183.083969,155.135971 182.661316,155.096008 
	C179.162872,155.038574 176.087051,155.021088 173.011246,155.003601 
	C173.730896,150.272522 174.450546,145.541473 175.762650,140.414795 
	C180.866409,140.016510 185.377731,140.013855 189.889038,140.011185 
z"/>
<path fill="#15A0FC" opacity="1.000000" stroke="none" 
	d="
M53.930115,156.444595 
	C58.763485,155.999252 63.478512,156.001282 68.649368,156.405701 
	C67.010574,162.859589 65.473228,168.914017 69.009583,174.995148 
	C65.609726,175.334961 62.209869,175.674774 58.360924,176.018921 
	C54.164825,170.156296 53.463688,163.636566 53.930115,156.444595 
z"/>
<path fill="#61BA4E" opacity="1.000000" stroke="none" 
	d="
M185.005676,155.392975 
	C187.724060,154.692398 190.444199,154.383194 193.566345,154.040253 
	C194.957535,156.784439 195.946716,159.562393 197.285736,163.322784 
	C198.291397,160.464218 198.971695,158.530533 200.312805,156.298859 
	C203.865112,156.047607 206.756622,156.094330 209.648117,156.141052 
	C208.665939,159.927780 207.683762,163.714508 205.999832,167.778229 
	C199.826187,168.384613 194.354309,168.713989 188.882416,169.043365 
	C187.590759,164.623688 186.299088,160.204010 185.005676,155.392975 
z"/>
<path fill="#67C04A" opacity="1.000000" stroke="none" 
	d="
M131.207245,146.401306 
	C134.959503,146.020874 138.604614,146.028915 142.717682,146.051971 
	C142.665833,149.240646 144.787140,150.101746 147.209869,151.028534 
	C151.428818,152.642441 155.539856,154.538361 159.571533,156.841553 
	C156.600830,157.911926 153.720306,158.322906 150.919022,159.042313 
	C148.499573,159.663666 146.170181,160.635696 143.800995,161.452728 
	C134.955566,158.820023 131.506180,154.837769 131.207245,146.401306 
z"/>
<path fill="#69C14B" opacity="1.000000" stroke="none" 
	d="
M209.785553,155.950592 
	C206.756622,156.094330 203.865112,156.047607 200.504013,156.002167 
	C201.086166,152.153000 202.137924,148.302567 203.866928,144.180084 
	C209.604370,143.609451 214.664597,143.310867 219.724808,143.012283 
	C220.310471,146.347458 220.896133,149.682617 221.026657,153.542786 
	C217.643600,154.379715 214.715668,154.691681 211.787750,155.003632 
	C211.166168,155.255798 210.544586,155.507965 209.785553,155.950592 
z"/>
<path fill="#5AB251" opacity="1.000000" stroke="none" 
	d="
M188.876984,169.442642 
	C194.354309,168.713989 199.826187,168.384613 205.780884,168.074890 
	C205.206177,172.004990 204.560760,176.100708 202.920502,179.749161 
	C202.077576,181.624084 199.414001,183.896057 197.656860,183.828018 
	C195.592056,183.748047 192.827484,181.749115 191.787827,179.817352 
	C190.181854,176.833359 189.782578,173.199921 188.876984,169.442642 
z"/>
<path fill="#5BB351" opacity="1.000000" stroke="none" 
	d="
M223.185471,164.933212 
	C223.898346,169.010559 224.766907,173.068573 225.275925,177.171219 
	C225.700104,180.590164 224.988785,183.637695 220.715515,184.027359 
	C216.508347,184.410995 215.296494,181.606812 214.801468,178.180634 
	C214.207443,174.069321 213.650696,169.952621 213.564484,165.422485 
	C217.095917,164.982224 220.140701,164.957718 223.185471,164.933212 
z"/>
<path fill="#62BA4E" opacity="1.000000" stroke="none" 
	d="
M144.082306,161.652039 
	C146.170181,160.635696 148.499573,159.663666 150.919022,159.042313 
	C153.720306,158.322906 156.600830,157.911926 159.752502,157.131073 
	C164.285080,159.593338 165.916901,163.544708 165.482941,168.752441 
	C161.768677,169.359589 158.196640,169.639175 154.186096,169.912506 
	C154.064255,163.208237 147.928604,164.027222 144.082306,161.652039 
z"/>
<path fill="#5BB351" opacity="1.000000" stroke="none" 
	d="
M181.361618,167.092300 
	C180.727737,171.367889 180.169296,175.656494 179.435028,179.914780 
	C178.893387,183.055939 176.896088,184.516098 173.704559,184.040375 
	C170.323227,183.536362 168.727631,181.491867 169.162338,178.098053 
	C169.563812,174.963669 170.156921,171.853806 171.263947,168.366089 
	C175.028702,167.696793 178.195160,167.394547 181.361618,167.092300 
z"/>
<path fill="#70C749" opacity="1.000000" stroke="none" 
	d="
M219.764587,142.621841 
	C214.664597,143.310867 209.604370,143.609451 204.055176,143.881271 
	C204.120163,141.798935 204.527542,139.689362 205.260696,137.699814 
	C206.524811,134.269485 208.985336,132.353012 212.786972,132.547958 
	C216.761490,132.751755 218.545944,135.235748 219.213104,138.835953 
	C219.422424,139.965515 219.607956,141.099457 219.764587,142.621841 
z"/>
<path fill="#6AC14C" opacity="1.000000" stroke="none" 
	d="
M230.604248,141.977448 
	C232.686264,141.933151 234.525665,142.178635 236.366196,142.415100 
	C238.256699,142.657990 240.148331,142.892044 242.441162,143.344070 
	C241.451614,145.937424 240.641693,148.247803 243.887604,150.361404 
	C242.142227,151.407471 240.173996,152.365692 238.100159,152.947571 
	C236.230545,153.472153 234.245285,153.584579 231.900360,154.046814 
	C231.113831,150.230988 230.737976,146.247131 230.604248,141.977448 
z"/>
<path fill="#64BB4F" opacity="1.000000" stroke="none" 
	d="
M181.541168,166.754547 
	C178.195160,167.394547 175.028702,167.696793 171.419540,168.001266 
	C171.556488,163.912842 172.136124,159.822174 172.863510,155.367554 
	C176.087051,155.021088 179.162872,155.038574 182.704086,155.077057 
	C182.686569,158.870972 182.203644,162.643890 181.541168,166.754547 
z"/>
<path fill="#64BB4F" opacity="1.000000" stroke="none" 
	d="
M223.222443,164.509995 
	C220.140701,164.957718 217.095917,164.982224 213.601959,165.009735 
	C212.670380,161.964966 212.187973,158.917221 211.746658,155.436554 
	C214.715668,154.691681 217.643600,154.379715 221.000153,153.975281 
	C222.038986,157.284119 222.649185,160.685455 223.222443,164.509995 
z"/>
<path fill="#75CB4B" opacity="1.000000" stroke="none" 
	d="
M189.894073,139.646408 
	C185.377731,140.013855 180.866409,140.016510 175.921173,140.026596 
	C175.472916,135.871002 177.050491,132.874695 181.577805,132.532227 
	C186.351593,132.171143 188.874893,134.872528 189.894073,139.646408 
z"/>
<path fill="#1E9CFD" opacity="1.000000" stroke="none" 
	d="
M105.420395,174.800507 
	C109.052032,175.220306 112.683678,175.640106 116.784241,176.077362 
	C116.830376,176.998749 116.407600,177.902664 115.758942,179.009583 
	C112.056503,178.384445 108.579941,177.556320 104.855980,176.220734 
	C104.879181,175.409027 105.149788,175.104767 105.420395,174.800507 
z"/>
<path fill="#64BB4F" opacity="1.000000" stroke="none" 
	d="
M183.425888,155.087677 
	C183.689590,154.997894 184.254990,154.775391 184.908752,154.776306 
	C184.573959,154.984802 184.150757,154.969879 183.425888,155.087677 
z"/>
<path fill="#EBF4F8" opacity="1.000000" stroke="none" 
	d="
M105.537292,174.398712 
	C105.149788,175.104767 104.879181,175.409027 104.530067,175.904190 
	C97.753731,178.319427 91.190369,181.256149 84.317566,182.553513 
	C78.303772,183.688721 72.951622,180.937485 69.261879,175.215286 
	C65.473228,168.914017 67.010574,162.859589 69.124260,156.406586 
	C72.034485,151.625320 74.925667,147.245529 77.959320,142.572678 
	C83.503380,139.930496 88.712944,136.721390 94.357628,135.461136 
	C100.684578,134.048553 104.643097,137.244354 107.041946,143.660187 
	C106.764870,150.574753 103.527611,155.481308 98.077103,159.470520 
	C93.097008,161.384338 88.364929,163.371048 83.437790,164.524460 
	C79.413445,165.466522 79.373093,167.558533 81.042229,170.192352 
	C83.547066,174.144836 87.533394,175.370544 91.873589,174.124954 
	C96.578606,172.774658 101.113121,170.830246 106.333786,168.921219 
	C106.074371,170.858719 105.864281,172.427826 105.537292,174.398712 
M84.418716,147.027954 
	C82.980904,150.524765 81.543091,154.021561 79.972885,157.840347 
	C88.379440,158.667480 94.480583,155.189026 95.543724,149.288437 
	C95.882973,147.405548 94.940834,144.505447 93.533966,143.345108 
	C92.424515,142.430038 89.615417,143.180267 87.730377,143.750305 
	C86.611740,144.088577 85.821022,145.511261 84.418716,147.027954 
z"/>
<path fill="#15ABFB" opacity="1.000000" stroke="none" 
	d="
M84.650787,146.737167 
	C85.821022,145.511261 86.611740,144.088577 87.730377,143.750305 
	C89.615417,143.180267 92.424515,142.430038 93.533966,143.345108 
	C94.940834,144.505447 95.882973,147.405548 95.543724,149.288437 
	C94.480583,155.189026 88.379440,158.667480 79.972885,157.840347 
	C81.543091,154.021561 82.980904,150.524765 84.650787,146.737167 
z"/>
</svg>